<?xml version="1.0" standalone="no"?>
<!DOCTYPE svg PUBLIC "-//W3C//DTD SVG 20010904//EN"
 "http://www.w3.org/TR/2001/REC-SVG-20010904/DTD/svg10.dtd">
<svg version="1.0" xmlns="http://www.w3.org/2000/svg"
 width="700.000000pt" height="700.000000pt" viewBox="0 0 700.000000 700.000000"
 preserveAspectRatio="xMidYMid meet">
<metadata>
Created by potrace 1.14, written by Peter Selinger 2001-2017
</metadata>
<g transform="translate(0.000000,700.000000) scale(0.100000,-0.100000)"
fill="#000000" stroke="none">
<path d="M1295 6989 c-238 -31 -498 -137 -697 -284 -105 -78 -271 -251 -342
-357 -109 -165 -185 -344 -228 -541 l-23 -102 0 -2205 0 -2205 23 -102 c67
-305 194 -536 411 -753 223 -222 449 -345 763 -413 l103 -22 2200 0 2200 0
102 23 c306 67 535 193 753 411 181 182 290 356 364 583 77 234 71 24 71 2478
0 2454 6 2244 -71 2478 -75 228 -183 403 -363 583 -217 217 -443 341 -749 411
l-97 22 -2175 2 c-1250 1 -2205 -2 -2245 -7z m1475 -2104 c208 -29 375 -84
499 -164 11 -7 -16 -60 -124 -242 -75 -129 -140 -238 -144 -242 -5 -4 -53 14
-107 41 -200 99 -311 130 -495 139 -199 9 -328 -24 -411 -104 -44 -43 -72
-116 -66 -173 2 -26 -1 -41 -9 -44 -18 -7 -6 -60 25 -120 59 -109 170 -167
577 -301 345 -114 488 -179 617 -283 47 -39 89 -68 91 -65 9 9 87 -161 104
-227 25 -97 23 -309 -6 -414 -44 -163 -139 -313 -265 -417 -420 -347 -1200
-326 -1774 47 -46 30 -81 58 -79 62 2 4 57 96 121 205 l117 198 37 -32 c85
-75 414 -207 619 -248 243 -50 461 -9 560 104 44 49 56 83 73 201 35 244 -77
343 -535 474 -367 104 -606 229 -732 383 -105 127 -145 254 -146 457 -1 146
13 225 56 321 29 63 148 196 240 265 125 95 324 170 515 193 105 13 513 4 642
-14z m2420 5 c170 -21 310 -58 415 -110 55 -27 106 -53 114 -58 12 -8 -12 -55
-123 -246 -76 -130 -142 -239 -147 -242 -5 -2 -41 13 -81 35 -184 99 -378 151
-565 151 -275 -1 -424 -93 -427 -262 0 -32 -4 -58 -8 -58 -15 0 -8 -65 12
-107 52 -116 176 -184 570 -313 292 -96 373 -127 470 -178 66 -35 191 -125
224 -161 10 -11 22 -19 26 -16 11 7 67 -95 89 -161 66 -199 47 -454 -48 -642
-177 -351 -617 -541 -1141 -493 -143 13 -315 49 -439 92 -113 39 -306 135
-404 200 -74 49 -77 52 -64 73 7 11 62 103 122 203 l108 183 34 -30 c62 -55
279 -152 469 -211 250 -77 487 -78 627 -2 57 32 122 101 135 146 19 61 35 205
28 247 -21 135 -138 224 -397 306 -476 149 -569 186 -709 279 -91 61 -198 177
-238 258 -53 108 -73 203 -74 352 0 208 35 314 146 439 166 189 389 301 664
335 92 12 493 5 612 -9z"/>
</g>
</svg>
