<svg width="300.393" height="904.252" viewBox="0 0 79.479 239.25" xmlns="http://www.w3.org/2000/svg">
  <defs>
    <filter id="left-curtain-mobile-c" x="-.159" y="-.057" width="1.317" height="1.113" color-interpolation-filters="sRGB">
      <feGaussianBlur stdDeviation="3.57"/>
    </filter>
    <filter id="left-curtain-mobile-a" x="-.301" y="-.079" width="1.603" height="1.157" color-interpolation-filters="sRGB">
      <feGaussianBlur stdDeviation="5.132"/>
    </filter>
    <filter id="left-curtain-mobile-b" x="-.164" y="-.04" width="1.327" height="1.079" color-interpolation-filters="sRGB">
      <feGaussianBlur stdDeviation="2.588"/>
    </filter>
  </defs>
  <g stroke-linecap="round">
    <path transform="matrix(-1 0 0 -.97426 547.62 257.06)" d="M498.48 94.796l20.68 6.827c1.815.6 3.368 1.688 3.27 3.597l-7.38 143.01c-.098 1.91-2.166 4.563-3.625 3.296-4.18-22.163-13.545 1.386-18.274-22.171-2.342-16.536 5.134-83.237-2.192-130.06-.295-1.89 5.705-5.097 7.52-4.497z" fill="#bec7f4" fill-opacity=".674" filter="url(#left-curtain-mobile-a)"/>
    <path transform="matrix(-.90877 0 0 -.90662 502.92 319.87)" d="M498.48 94.796l20.68 6.827c1.815.6 3.368 1.688 3.27 3.597l-7.38 143.01c-.098 1.91-1.739 3.609-3.625 3.296l-26.574-4.41c-1.885-.314 3.803-22.24 4.018-24.14 7.27-64.428 9.416-76.859 2.09-123.68-.295-1.89 5.705-5.097 7.52-4.498z" fill="#3737ee" fill-opacity=".657" filter="url(#left-curtain-mobile-b)"/>
    <path transform="matrix(-.9847 -.17427 .18208 -.98328 309.87 236.6)" d="M263.81-40.1h21.354a3.443 3.443 0 013.45 3.45v143.2c0 1.912-1.627 4.04-3.45 3.451l-4.003-1.292c-1.823-.589-7.271-3.88-7.271-3.88s9.477-20.7 9.703-57.963c.196-32.142-23.234-83.516-23.234-83.516-.133-1.908 1.54-3.45 3.45-3.45z" fill="#fefeff" filter="url(#left-curtain-mobile-c)"/>
    <path d="M49.8 231.78l-26.369-5.493c-1.871-.39-3.334-1.826-3.119-3.723l16.556-145.8c.216-1.897 1.927-3.686 3.758-3.139l18.382 5.493c1.832.548 7.03 4.348 5.135 4.12-5.22-.628-11.952 94.314-6.172 146.6.21 1.897-6.3 2.334-8.171 1.944z" fill="#fff"/>
    <path transform="matrix(-1 0 0 -.92048 550.62 314.93)" d="M498.48 94.796l20.68 6.827c1.815.6 3.368 1.688 3.27 3.597l-7.38 143.01c-.098 1.91-1.739 3.609-3.625 3.296l-26.574-4.41c-1.885-.314 3.803-22.24 4.018-24.14 7.27-64.428 9.416-76.859 2.09-123.68-.295-1.89 5.705-5.097 7.52-4.498z" fill="#bec7f4" fill-opacity=".674" filter="url(#left-curtain-mobile-a)"/>
    <path d="M46.39 232l-26.369-5.501c-1.871-.39-3.21-1.819-3.119-3.728L27.19 6.29c.091-1.91 3.519-5.04 3.758-3.144.388 1.523 19.028 6.013 20.707 13.157 3.673 15.631 6.434 54.46 5.778 70.754 0 0-6.127 91.266-2.87 143 .12 1.908-6.3 2.338-8.17 1.947z" fill="#fff"/>
  </g>
</svg>