<svg width="213.332" height="213.332" viewBox="0 0 56.444 56.444" xmlns="http://www.w3.org/2000/svg">
  <defs>
    <filter id="ss-logo-f" x="-.036" y="-.142" width="1.073" height="1.285" color-interpolation-filters="sRGB">
      <feGaussianBlur stdDeviation=".785"/>
    </filter>
    <filter id="ss-logo-b" x="-.082" y="-.065" width="1.164" height="1.13" color-interpolation-filters="sRGB">
      <feGaussianBlur stdDeviation=".545"/>
    </filter>
    <filter id="ss-logo-a" x="-.02" y="-.016" width="1.041" height="1.033" color-interpolation-filters="sRGB">
      <feGaussianBlur stdDeviation=".136"/>
    </filter>
    <clipPath id="ss-logo-d">
      <path d="M273.55 1.006c5.185 0 8.651-2.873 8.651-7.152 0-3.436-2.217-5.653-7.12-7.152-3.467-1.062-4.373-1.687-4.373-2.967 0-1.312 1.28-2.093 3.404-2.093 1.75 0 3.31.468 5.247 1.593l2.312-3.935c-2.374-1.5-4.748-2.156-7.621-2.156-4.904 0-8.277 2.749-8.277 6.84 0 3.561 1.968 5.466 7.121 6.872 3.373.937 4.373 1.686 4.373 3.217 0 1.53-1.406 2.436-3.717 2.436-2.186 0-4.03-.656-6.34-2.311l-2.343 3.966c2.405 1.812 5.497 2.842 8.683 2.842z" fill="#fff" stroke-width=".265" />
    </clipPath>
    <clipPath id="ss-logo-c">
      <path d="M273.55 1.006c5.185 0 8.651-2.873 8.651-7.152 0-3.436-2.217-5.653-7.12-7.152-3.467-1.062-4.373-1.687-4.373-2.967 0-1.312 1.28-2.093 3.404-2.093 1.75 0 3.31.468 5.247 1.593l2.312-3.935c-2.374-1.5-4.748-2.156-7.621-2.156-4.904 0-8.277 2.749-8.277 6.84 0 3.561 1.968 5.466 7.121 6.872 3.373.937 4.373 1.686 4.373 3.217 0 1.53-1.406 2.436-3.717 2.436-2.186 0-4.03-.656-6.34-2.311l-2.343 3.966c2.405 1.812 5.497 2.842 8.683 2.842z" fill="#fff" stroke-width=".265" />
    </clipPath>
    <linearGradient id="ss-logo-e" x1="284.01" x2="284.01" y1="29.271" y2="52.732" gradientTransform="translate(-254.92 -25.74)" gradientUnits="userSpaceOnUse">
      <stop stop-color="#6874db" offset="0"/>
      <stop stop-color="#3441af" offset=".369"/>
      <stop stop-color="#1e297c" offset="1"/>
    </linearGradient>
  </defs>
  <rect width="56.444" height="56.444" ry="12.014" fill="#1e297c"/>
  <rect x="2.313" y="2.313" width="51.817" height="51.817" ry="11.029" fill="url(#ss-logo-e)"/>
  <path d="M13.557 2.314c-6.11 0-11.03 4.919-11.03 11.029v2.198c0-6.11 4.92-11.029 11.03-11.029h29.758c6.11 0 11.029 4.919 11.029 11.029v-2.198c0-6.11-4.919-11.03-11.029-11.03z" fill="#b9bff7" fill-opacity=".416" filter="url(#ss-logo-f)"/>
  <g stroke-width=".265">
    <path d="M18.352 40.153c5.185 0 8.652-2.873 8.652-7.152 0-3.436-2.218-5.653-7.122-7.153-3.466-1.062-4.372-1.686-4.372-2.967 0-1.312 1.28-2.092 3.404-2.092 1.75 0 3.31.468 5.247 1.593l2.312-3.936c-2.374-1.499-4.748-2.155-7.621-2.155-4.904 0-8.277 2.749-8.277 6.84 0 3.56 1.968 5.466 7.121 6.871 3.373.937 4.373 1.687 4.373 3.217s-1.406 2.437-3.717 2.437c-2.186 0-4.03-.656-6.34-2.312l-2.343 3.967c2.405 1.811 5.497 2.842 8.683 2.842z" fill="#fff"/>
    <path transform="translate(-255.2 39.147)" d="M273.77-23.132c-4.014 0-6.729 2.104-7.68 5.017 1.2-2.545 3.879-4.208 7.548-4.208 3.293 0 5.653.208 8.025 1.607-2.373-1.5-5.02-2.416-7.893-2.416zm-3.056 6.633c.128.295-.27.603-.162.943.4 1.258 1.033 1.667 4.5 2.73 3.982 1.217 6.269 2.69 7.018 5.337-.526-2.694-2.757-4.528-6.997-5.825-3.467-1.062-4.372-1.686-4.372-2.967 0-.074-.358-1.074-.33-1.008zm-3.511 10.682c-2.843 0 4.14 2.767 6.327 2.767 2.31 0 3.409-.649 3.73-2.159.028-.134-.011-.266-.028-.39-.198 1.32-1.557 2.093-3.69 2.093-2.185 0-3.496-2.311-6.34-2.311z" clip-path="url(#ss-logo-c)" fill="#010101" fill-opacity=".495" filter="url(#ss-logo-a)" style="mix-blend-mode:normal"/>
    <path transform="translate(-255.2 39.147)" d="M273.41-24.503c-4.014 0-7.89 3.23-7.837 7.473.802-4.444 4.587-5.7 8.257-5.7 3.293 0 6.227-.138 7.837 2.015.19-2.635-5.384-3.788-8.257-3.788zm-2.692 8.005c.322 0-.221.591-.162.943.214 1.263 1.054 1.914 4.521 2.976 3.982 1.217 6.248 2.444 6.997 5.09-.526-2.694-2.757-4.528-6.997-5.824-3.467-1.062-4.372-1.686-4.372-2.967 0-.075-.059-.219.013-.219zm-3.511 10.682c-2.843 0 4.154 3.044 6.34 3.044 2.311 0 3.716-.906 3.716-2.436 0-.137-.01-.266-.027-.39-.198 1.32-1.557 2.093-3.69 2.093-2.185 0-3.496-2.311-6.34-2.311z" clip-path="url(#ss-logo-d)" fill="#010101" filter="url(#ss-logo-b)"/>
    <path d="M38.123 40.153c5.185 0 8.652-2.873 8.652-7.152 0-3.436-2.218-5.653-7.122-7.153-3.466-1.062-4.372-1.686-4.372-2.967 0-1.312 1.28-2.092 3.404-2.092 1.75 0 3.31.468 5.247 1.593l2.311-3.936c-2.373-1.499-4.747-2.155-7.62-2.155-4.904 0-8.277 2.749-8.277 6.84 0 3.56 1.968 5.466 7.121 6.871 3.373.937 4.373 1.687 4.373 3.217s-1.406 2.437-3.717 2.437c-2.186 0-4.03-.656-6.34-2.312l-2.343 3.967c2.405 1.811 5.497 2.842 8.683 2.842z" fill="#fff"/>
    <path transform="translate(-235.43 39.147)" d="M273.77-23.132c-4.014 0-6.729 2.104-7.68 5.017 1.2-2.545 3.879-4.208 7.548-4.208 3.293 0 5.653.208 8.025 1.607-2.373-1.5-5.02-2.416-7.893-2.416zm-3.056 6.633c.128.295-.27.603-.162.943.4 1.258 1.033 1.667 4.5 2.73 3.982 1.217 6.269 2.69 7.018 5.337-.526-2.694-2.757-4.528-6.997-5.825-3.467-1.062-4.372-1.686-4.372-2.967 0-.074-.358-1.074-.33-1.008zm-3.511 10.682c-2.843 0 4.14 2.767 6.327 2.767 2.31 0 3.409-.649 3.73-2.159.028-.134-.011-.266-.028-.39-.198 1.32-1.557 2.093-3.69 2.093-2.185 0-3.496-2.311-6.34-2.311z" clip-path="url(#ss-logo-c)" fill="#010101" fill-opacity=".495" filter="url(#ss-logo-a)" style="mix-blend-mode:normal"/>
    <path transform="translate(-235.43 39.147)" d="M273.41-24.503c-4.014 0-7.89 3.23-7.837 7.473.802-4.444 4.587-5.7 8.257-5.7 3.293 0 6.227-.138 7.837 2.015.19-2.635-5.384-3.788-8.257-3.788zm-2.692 8.005c.322 0-.221.591-.162.943.214 1.263 1.054 1.914 4.521 2.976 3.982 1.217 6.248 2.444 6.997 5.09-.526-2.694-2.757-4.528-6.997-5.824-3.467-1.062-4.372-1.686-4.372-2.967 0-.075-.059-.219.013-.219zm-3.511 10.682c-2.843 0 4.154 3.044 6.34 3.044 2.311 0 3.716-.906 3.716-2.436 0-.137-.01-.266-.027-.39-.198 1.32-1.557 2.093-3.69 2.093-2.185 0-3.496-2.311-6.34-2.311z" clip-path="url(#ss-logo-d)" fill="#010101" filter="url(#ss-logo-b)"/>
  </g>
</svg>