<svg
    width="550.59"
    height="1095.9"
    viewBox="0 0 145.68 289.95"
    xmlns="http://www.w3.org/2000/svg"
  >
    <defs>
      <linearGradient
        id="right-curtain-desktop-b"
        x1="-210.11"
        x2="-204.41"
        y1="217.23"
        y2="-13.426"
        gradientTransform="scale(-1.3321) rotate(65.39 -4.575 57.268)"
        gradientUnits="userSpaceOnUse"
      >
        <stop stop-color="#c2c2ce" offset="0" />
        <stop stop-color="#bfbfd1" stop-opacity="0" offset="1" />
      </linearGradient>
      <linearGradient
        id="right-curtain-desktop-a"
        x1="-204.45"
        x2="-208.61"
        y1="211.59"
        y2="-5.237"
        gradientTransform="matrix(-.46786 -1.0415 1.0353 -.48352 -10.94 -20.054)"
        gradientUnits="userSpaceOnUse"
      >
        <stop stop-color="#c2c2ce" offset="0" />
        <stop stop-color="#c2c2ce" stop-opacity="0" offset="1" />
      </linearGradient>
      <linearGradient
        id="right-curtain-desktop-d"
        x1="124.93"
        x2="92.539"
        y1="79.827"
        y2="82.358"
        gradientTransform="matrix(1.1998 0 0 1.1156 -41.714 -18.537)"
        gradientUnits="userSpaceOnUse"
      >
        <stop stop-color="#adadb9" offset="0" />
        <stop stop-color="#adadb9" stop-opacity="0" offset="1" />
      </linearGradient>
      <linearGradient
        id="right-curtain-desktop-e"
        x1="1049.1"
        x2="1037.2"
        y1="-556.83"
        y2="-557.61"
        gradientTransform="matrix(1.0776 .28864 -.28864 1.0776 -1161.3 445.88)"
        gradientUnits="userSpaceOnUse"
      >
        <stop stop-color="#d8d3ea" offset="0" />
        <stop stop-color="#d8d3ea" stop-opacity="0" offset="1" />
      </linearGradient>
      <linearGradient
        id="right-curtain-desktop-f"
        x1="283.08"
        x2="251.26"
        y1="98.506"
        y2="94.567"
        gradientTransform="matrix(1.0986 .19442 -.20313 1.097 -179.48 97.046)"
        gradientUnits="userSpaceOnUse"
      >
        <stop stop-color="#e3e2ea" offset="0" />
        <stop stop-color="#e6e6e6" stop-opacity="0" offset="1" />
      </linearGradient>
      <filter
        id="right-curtain-desktop-c"
        x="-.048"
        y="-.057"
        width="1.097"
        height="1.114"
        color-interpolation-filters="sRGB"
      >
        <feGaussianBlur stdDeviation="3.17" />
      </filter>
    </defs>
    <path
      class="big-blur"
      d="M38.01 250.16L1.806 171.119a19.83 19.83 0 019.793-26.346l255.19-116.89s-146.61 207.68-202.43 232.07a19.83 19.83 0 01-26.346-9.793z"
      fill="url(#right-curtain-desktop-b)"
      style="mix-blend-mode:normal"
    />
    <path
      d="M111.68 1.922c5.583.163 8.357 16.081 9.589 21.207l29.555 123.05c1.231 5.125-3.562 7.97-8.089 11.048l-57.848 39.324c-4.528 3.078-11.986-2.359-11.745-7.608 4.866-106.11-1.926-120.76-8.285-159.88-1.853-9.753 24.498-24.325 46.178-41.158z"
      fill="url(#right-curtain-desktop-d)"
    />
    <path
      d="M157.67-68.265l-78.498 84.16c-5.87 6.173-6.528 9.835-4.318 21.043l22.655 120.66c.403.863 76.644-83.101 76.644-83.101-5.54-26.65-16.484-142.77-16.484-142.77z"
      fill="#fff"
    />
    <g class="colored-rects">
      <path
        class="light-blue-rect"
        d="M113.291 80.414l54.124 6.011-76.538 187.56a11.993 11.993 0 01-10.622-13.34l19.636-169.55a12.129 12.129 0 0113.4-10.673z"
        fill="#bec7f7"
      />
      <path
        class="dark-blue-rect"
        d="M121.241 74.777l52.931 10.548-101.5 170.03 34.054-170.89a12.311 12.311 0 0114.512-9.69z"
        fill="#1e297c"
      />
    </g>
    <g class="mid-rect">
      <path
        transform="translate(-28.2 -18.537) scale(1.1156)"
        d="M98.6 208.15l-21.309-46.522a11.673 11.673 0 015.764-15.507l150.2-68.797s-121.68 157.03-134.65 130.83z"
        fill="#c3c3cf"
        filter="url(#right-curtain-desktop-c)"
      />
      <path
        d="M99.424 227.24l-29.61-65.912a12.494 12.679 20.404 016.26-16.845l197.74-92.351z"
        fill="url(#right-curtain-desktop-a)"
        transform="translate(-25.279)"
      />
      <path
        d="M81.801 213.68l-23.773-51.902a13.023 13.023 0 016.43-17.3l167.57-76.752s-135.75 175.19-150.22 145.96z"
        fill="#fff"
      />
      <g
        class="btn-arrow"
        transform="translate(-28.2 -18.537) scale(1.1156)"
        stroke-linecap="round"
      >
        <rect
          x="80.949"
          y="149.41"
          width="15.052"
          height="15.37"
          ry="2.195"
          fill="#fff"
        />
        <g fill="none" stroke="#000" stroke-width=".953">
          <circle cx="88.44" cy="157.34" r="5.599" />
          <path d="M88.657 160.02l2.59-2.683" />
          <path d="M88.657 154.65l2.59 2.683" />
          <path d="M85.634 157.27l3.728.065" />
        </g>
      </g>
    </g>
    <g class="bottom-rect">
      <path
        class="bottom-blur"
        d="M135.011 158.57L83.444 277.15c-.85 1.956 25.28 3.803 23.157 3.6l-50.696-2.68c-2.123-.202-6.039-2.406-7.81-6.025-2.567-12.465 20.816-55.215 25.776-63.75 22.709-39.076 64.93-58.065 61.141-49.724z"
        fill="#e3e2ea"
        fill-opacity=".19"
      />
      <path
        class="bottom-blur"
        d="M167.51 151.46l-51.567 118.58c-.85 1.956 3.234 7.332 1.111 7.13l-28.65-6.21c-2.123-.202-6.04-2.406-7.81-6.025-2.568-12.465 20.815-55.215 25.775-63.75 22.71-39.076 64.93-58.065 61.141-49.724z"
        fill="url(#right-curtain-desktop-f)"
        transform="translate(-25.279)"
      />
      <path
        d="M211.11 84.167c-17.409 28.222-54.443 203.25-54.443 203.25l-39.019-16.238c-7.114-1.285-27.262-7.541-25.355-14.516 14.172-51.804-3.369-38.85 14.238-99.363 0 0 27.28-60.371 37.53-83.304 4.104-7.932 9.122-7.8 18.652-5.03 0 0 34.534 11.167 48.398 15.197z"
        fill="url(#right-curtain-desktop-e)"
        style="mix-blend-mode:normal"
        transform="translate(-25.279)"
      />
      <path
        d="M136.561 70.138l53.795 19.109s-26.988 152.93-41.073 209.96l-83.149-30.799c-6.708-2.7-10.35-9.853-7.93-16.668l61.69-173.68c2.4-6.803 9.873-10.359 16.666-7.929z"
        fill="#fff"
      />
    </g>
  </svg>