<svg width="157.22" height="879.5" viewBox="0 0 41.598 232.7" xmlns="http://www.w3.org/2000/svg">
  <defs>
    <filter id="right-curtain-mobile-e" x="-.159" y="-.057" width="1.317" height="1.113" color-interpolation-filters="sRGB">
      <feGaussianBlur stdDeviation="3.57"/>
    </filter>
    <filter id="right-curtain-mobile-b" x="-.301" y="-.079" width="1.603" height="1.157" color-interpolation-filters="sRGB">
      <feGaussianBlur stdDeviation="5.132"/>
    </filter>
    <filter id="right-curtain-mobile-f" x="-.066" y="-.039" width="1.132" height="1.079" color-interpolation-filters="sRGB">
      <feGaussianBlur stdDeviation=".704"/>
    </filter>
  </defs>
  <g stroke-linecap="round">
    <path transform="rotate(-8.202 105.66 4424.6)" d="M675.61 51.159l4.504 7.717c.964 1.651 3.36 1.687 3.27 3.597l-6.409 136.28c-.09 1.91-1.739 3.608-3.625 3.295l-26.574-4.41c-1.886-.313 3.803-22.24 4.018-24.14 7.27-64.427 9.414-91.844 17.296-117.84.554-1.83 6.556-6.148 7.52-4.497z" fill="#bec7f4" fill-opacity=".674" filter="url(#right-curtain-mobile-b)"/>
    <path d="M31.2 56.918l20.68 6.827c1.815.6 3.368 1.688 3.27 3.597l-7.38 143.01c-.098 1.91-1.739 3.609-3.625 3.296l-26.574-4.41c-1.885-.314 3.803-22.24 4.018-24.14 7.27-64.428 9.416-76.859 2.09-123.68-.295-1.89 5.705-5.097 7.52-4.498z" fill="#bec7f4" fill-opacity=".674" filter="url(#right-curtain-mobile-b)"/>
    <g transform="translate(-629.2 -37.878)">
      <rect transform="matrix(.99677 .08035 -.12474 .99219 0 0)" x="673.95" y="92.691" width="28.225" height="123.19" ry="2.832" fill="#bdc7f7"/>
      <path d="M660.16 121.74l27.468-6.369c1.659-.384 2.87 1.693 2.646 3.38l-19.45 147.1a3.157 3.157 0 01-3.465 2.712l-21.972-2.403a2.98 2.98 0 01-2.646-3.38s17.447-102.57 15.485-136.83c-.098-1.7.275-3.823 1.934-4.208z" fill="#2848e5"/>
      <path transform="matrix(.9847 .17427 -.18208 .98328 402.67 106.76)" d="M263.81-40.1h21.354a3.443 3.443 0 013.45 3.45v143.2c0 1.912-1.546 3.298-3.45 3.451l-20.673 1.663c-1.904.153-7.696-2.02-7.271-3.881 0 0 9.476-20.7 9.703-57.962.196-32.142-6.564-86.47-6.564-86.47-.133-1.908 1.54-3.45 3.451-3.45z" fill="#e6e6e6" filter="url(#right-curtain-mobile-e)"/>
      <path d="M669.74 113.3l25.765 7.858c1.829.558 3.118 2.115 2.77 3.994l-26.073 140.81c-.348 1.88-2.198 3.35-4.027 2.792l-25.765-7.858c-1.828-.558-3.117-2.115-2.77-3.994 0 0 20.364-90.583 21.787-142.4.052-1.911 6.485-1.76 8.313-1.202z" fill="#fff"/>
    </g>
  </g>
  <path d="M30.88 85.252l-.679 14.996-.826 18.902 25.872-8.828-17.01-36.268z" fill="#fff" filter="url(#right-curtain-mobile-f)"/>
  <g class="btn-arrow" transform="translate(-629.2 -37.878)" stroke-linecap="round">
    <rect x="642.11" y="247.18" width="14.322" height="14.412" ry="3.316" fill="#fff" fill-opacity=".998"/>
    <circle cx="649.43" cy="254.23" r="5.599" fill="#fff" stroke="#666" stroke-width=".953"/>
    <g fill="none" stroke="#666" stroke-width=".953">
      <path d="M649.65 256.91l2.59-2.683"/>
      <path d="M649.65 251.55l2.59 2.683"/>
      <path d="M646.62 254.16l3.728.065"/>
    </g>
  </g>
  <path d="M45.66 1.645l21.159 18.592c1.436 1.262 3.304 1.809 3.136 3.713L57.375 166.6c-.167 1.905-1.869 3.543-3.742 3.162l-26.395-5.375c-1.874-.382-3.305-1.81-3.137-3.713 0 0 9.153-54.182 8.095-86.961.408-30.652 4.324-55.322 5.525-63.943 3.877-11.622 6.503-9.384 7.94-8.122z" fill="#fff"/>
</svg>