<svg width="382.83" height="1226.9" viewBox="0 0 101.29 324.62" xmlns="http://www.w3.org/2000/svg">
  <defs>
    <filter id="left-curtain-desktop-d" x="-.113" y="-.116" width="1.226" height="1.232" color-interpolation-filters="sRGB">
      <feGaussianBlur stdDeviation="3.833"/>
    </filter>
    <filter id="left-curtain-desktop-e" x="-.199" y="-.124" width="1.399" height="1.248" color-interpolation-filters="sRGB">
      <feGaussianBlur stdDeviation="7.799"/>
    </filter>
    <filter id="left-curtain-desktop-f" x="-.28" y="-.2" width="1.559" height="1.401" color-interpolation-filters="sRGB">
      <feGaussianBlur stdDeviation="12.666"/>
    </filter>
  </defs>
  <rect x="1198.7" y="-314.1" width="153.03" height="404.41" ry="8.404" fill="#fff"/>
  <rect x="696.4" y="203.03" width="503.52" height="260.05" ry="2.184" fill="none" stroke="#000" stroke-linecap="round" stroke-width="1.306"/>
  <g class="bottom-rect">
    <rect transform="matrix(-1.0238 -.3067 .3477 -.9031 -750.82 -145.44)" x="-824.14" y="-204.75" width="69.076" height="143.11" ry="8.074" fill="#ded5eb" filter="url(#left-curtain-desktop-f)"/>
    <rect transform="rotate(198.76)" x="-111.76" y="-277.98" width="69.076" height="143.11" ry="8.074" fill="#fff"/>
    <rect transform="rotate(-41.893)" x="-152.72" y="101.39" width="66.725" height="57.488" ry="8.979" fill="#3f4790"/>
  </g>
  <g class="top-rect">
    <rect transform="rotate(168.23 -340.81 -115.84)" x="-662.82" y="-465.52" width="69.076" height="143.11" ry="8.074" fill="#d0cddb" filter="url(#left-curtain-desktop-e)"/>
    <rect transform="rotate(168.23)" x="-11.411" y="-175.49" width="69.076" height="143.11" ry="8.074" fill="#bec7f7"/>
    <path d="M37.845 162.456l-51.815 10.796a8.056 8.056 0 01-9.551-6.257l-25.9-124.3a8.056 8.056 0 016.257-9.551L8.651 22.347a8.056 8.056 0 019.552 6.257l25.9 124.3a8.056 8.056 0 01-6.258 9.552z" fill="#fff"/>
  </g>
  <g class="mid-rect">
    <rect transform="scale(1.0151 .991) rotate(-45 -539.132 762.78)" x="214.05" y="693.82" width="66.725" height="57.488" ry="8.979" fill="#8173ca" filter="url(#left-curtain-desktop-d)"/>
    <rect transform="rotate(-45)" x="-166.62" y="87.244" width="66.725" height="57.488" ry="8.979" fill="#fff"/>
    <g class="btn-arrow" stroke-linecap="round">
      <rect x="5.342" y="165.71" width="16.05" height="15.491" ry="0" fill="#fff"/>
      <g fill="none" stroke="#000" stroke-width=".953">
        <circle transform="scale(-1 1)" cx="-13.212" cy="173.43" r="5.599"/>
        <path d="M12.996 176.12l-2.59-2.683"/>
        <path d="M12.996 170.75l-2.59 2.683"/>
        <path d="M16.019 173.37l-3.728.065"/>
      </g>
    </g>
  </g>
</svg>